<svg width="15" height="11" viewBox="0 0 15 11" fill="none" xmlns="http://www.w3.org/2000/svg">
<path d="M13.8852 2.03784C13.7088 1.42032 13.3206 1.02334 12.7208 0.84691C10.9741 0.688119 9.22738 0.608724 7.48069 0.608724C5.55756 0.608724 3.81969 0.714584 2.26708 0.926304C1.63192 1.01452 1.2173 1.38503 1.02322 2.03784C0.705639 4.24325 0.705639 6.40456 1.02322 8.52177C1.19965 9.13928 1.58781 9.53626 2.18768 9.71269C3.7403 9.92441 5.50463 10.0303 7.48069 10.0303C9.42146 10.0303 11.1681 9.92441 12.7208 9.71269C13.3206 9.53626 13.7088 9.13928 13.8852 8.52177C14.2028 6.40456 14.2028 4.24325 13.8852 2.03784ZM5.68106 7.33084V3.38755L9.14798 5.34596L5.68106 7.33084Z" fill="black"/>
</svg>
