<svg width="102" height="32" viewBox="0 0 102 32" fill="none" xmlns="http://www.w3.org/2000/svg">
<path d="M100.837 27.1538C100.837 29.8967 98.6397 31.6338 95.5438 31.6338H6.46147C3.46542 31.6338 0.968719 29.3481 0.968719 26.6052V5.39381C0.968719 2.65095 3.46542 0.365234 6.46147 0.365234H95.6437C98.6397 0.365234 100.937 2.65095 100.937 5.39381V27.1538H100.837Z" fill="#020303" stroke="white" stroke-width="0.638354" stroke-miterlimit="10"/>
<path d="M100.837 27.1538C100.837 29.8967 98.6397 31.6338 95.5438 31.6338H6.46147C3.46542 31.6338 0.968719 29.3481 0.968719 26.6052V5.39381C0.968719 2.65095 3.46542 0.365234 6.46147 0.365234H95.6437C98.6397 0.365234 100.937 2.65095 100.937 5.39381V27.1538H100.837Z" fill="#020303" stroke="white" stroke-width="0.638354" stroke-miterlimit="10"/>
<path d="M69.1787 22.7646L68.4796 23.4961C68.2799 23.5875 68.18 23.6789 67.9803 23.7704C67.4809 23.9532 66.8817 24.0446 66.4822 24.0446C65.9829 24.0446 65.1839 24.0446 64.385 23.4961C63.2865 22.7646 62.7871 21.5761 62.7871 20.4789C62.7871 18.2846 64.7845 17.1875 66.3824 17.1875C66.9816 17.1875 67.4809 17.2789 67.9803 17.5532C68.7792 18.0104 68.9789 18.6504 69.0788 19.0161L65.3837 20.3875L64.1853 20.4789C64.5847 22.3075 65.883 23.4046 67.381 23.4046C68.0801 23.2218 68.6793 23.0389 69.1787 22.7646ZM66.9816 19.1989C67.2812 19.1075 67.4809 19.0161 67.4809 18.8332C67.4809 18.2846 66.7818 17.5532 65.883 17.5532C65.2838 17.5532 64.0854 18.0104 64.0854 19.5646C64.0854 19.8389 64.0854 20.0218 64.0854 20.2961L66.9816 19.1989Z" fill="white"/>
<path d="M61.4888 22.6735C61.4888 23.2221 61.5887 23.3135 62.088 23.4049C62.3876 23.4049 62.5874 23.4049 62.887 23.4964L62.3876 23.7706H59.5913C59.9908 23.3135 59.9908 23.3135 59.9908 23.0392V22.6735V14.1706H58.7924L59.9908 13.6221H62.1879C61.6886 13.8964 61.5887 14.0792 61.4888 14.5364V22.6735Z" fill="white"/>
<path d="M57.1945 17.7361C57.594 18.0104 58.293 18.5589 58.293 19.6561C58.293 20.7532 57.594 21.2104 56.9947 21.6675C56.795 21.8504 56.5953 22.0332 56.5953 22.3989C56.5953 22.6732 56.795 22.8561 56.9947 23.0389L57.594 23.4046C58.293 23.9532 58.8922 24.4104 58.8922 25.4161C58.8922 26.7875 57.4941 28.1589 54.7976 28.1589C52.5007 28.1589 51.4021 27.1532 51.4021 26.1475C51.4021 25.5989 51.7017 24.8675 52.6005 24.4104C53.5992 23.8618 54.8975 23.7704 55.5966 23.7704C55.3969 23.4961 55.0972 23.2218 55.0972 22.7646C55.0972 22.4904 55.1971 22.3989 55.297 22.2161C55.0972 22.2161 54.9974 22.2161 54.7976 22.2161C53.0999 22.2161 52.2011 21.1189 52.2011 19.9304C52.2011 19.2904 52.5007 18.5589 53.1998 18.0104C54.0986 17.3704 55.1971 17.1875 55.9961 17.1875H59.1918L58.1932 17.7361H57.1945ZM56.0959 24.1361C55.9961 24.1361 55.8962 24.1361 55.6965 24.1361C55.5966 24.1361 54.6978 24.1361 54.0986 24.4104C53.799 24.5018 52.7004 24.8675 52.7004 25.8732C52.7004 26.8789 53.799 27.6104 55.4967 27.6104C56.9947 27.6104 57.7937 26.9704 57.7937 26.0561C57.7937 25.3246 57.2943 24.9589 56.0959 24.1361ZM56.5953 21.3932C56.9947 21.0275 56.9947 20.5704 56.9947 20.3875C56.9947 19.3818 56.2957 17.7361 54.9974 17.7361C54.5979 17.7361 54.1984 17.9189 53.8988 18.1932C53.5992 18.4675 53.5992 18.9246 53.5992 19.2904C53.5992 20.2961 54.1984 21.8504 55.5966 21.8504C55.8962 21.8504 56.2957 21.6675 56.5953 21.3932Z" fill="white"/>
<path d="M47.5073 23.9538C45.0106 23.9538 43.7123 22.2167 43.7123 20.571C43.7123 18.651 45.41 17.0967 47.8069 17.0967C50.1038 17.0967 51.6019 18.7424 51.6019 20.4795C51.502 22.1252 50.004 23.9538 47.5073 23.9538ZM49.4048 22.7652C49.8042 22.3081 49.9041 21.7595 49.9041 21.211C49.9041 19.931 49.205 17.5538 47.3075 17.5538C46.8082 17.5538 46.3089 17.7367 45.9094 18.011C45.3102 18.4681 45.2103 19.1081 45.2103 19.7481C45.2103 21.211 46.0092 23.4967 47.9067 23.4967C48.506 23.4967 49.1052 23.2224 49.4048 22.7652Z" fill="white"/>
<path d="M39.1184 23.9538C36.6216 23.9538 35.3234 22.2167 35.3234 20.571C35.3234 18.651 37.0211 17.0967 39.418 17.0967C41.7149 17.0967 43.2129 18.7424 43.2129 20.4795C43.1131 22.1252 41.7149 23.9538 39.1184 23.9538ZM41.1157 22.7652C41.5152 22.3081 41.6151 21.7595 41.6151 21.211C41.6151 19.931 40.916 17.5538 39.0185 17.5538C38.5191 17.5538 38.0198 17.7367 37.6203 18.011C37.0211 18.4681 36.9213 19.1081 36.9213 19.7481C36.9213 21.211 37.7202 23.4967 39.6177 23.4967C40.117 23.4967 40.7162 23.2224 41.1157 22.7652Z" fill="white"/>
<path d="M34.3247 23.4964L32.2275 23.9535C31.3286 24.0449 30.6296 24.2278 29.8306 24.2278C25.736 24.2278 24.238 21.4849 24.238 19.3821C24.238 16.7307 26.4351 14.3535 30.1302 14.3535C30.9292 14.3535 31.7281 14.4449 32.4272 14.6278C33.5257 14.9021 34.0251 15.2678 34.3247 15.4507L33.1263 16.5478H32.5271L32.9265 15.9992C32.4272 15.5421 31.5284 14.7192 29.7308 14.7192C27.4338 14.7192 25.6362 16.3649 25.6362 18.6507C25.6362 21.2107 27.6335 23.5878 30.8293 23.5878C31.7281 23.5878 32.2275 23.4049 32.7268 23.2221V21.0278L30.5297 21.2107L31.7281 20.6621H34.824L34.5244 20.9364C34.4246 21.0278 34.4246 21.0278 34.4246 21.1192C34.4246 21.2107 34.4246 21.6678 34.4246 21.7592L34.3247 23.4964Z" fill="white"/>
<path d="M73.7726 22.8567V26.5138H72.9737V17.1881H73.7726V18.2853C74.272 17.6453 75.2706 17.0967 76.3692 17.0967C78.3665 17.0967 79.6648 18.4681 79.6648 20.6624C79.6648 22.8567 78.3665 24.2281 76.3692 24.2281C75.2706 24.1367 74.3718 23.5881 73.7726 22.8567ZM78.766 20.571C78.766 18.9253 77.8672 17.7367 76.1694 17.7367C75.1708 17.7367 74.1721 18.4681 73.7726 19.1081V22.1253C74.1721 22.7653 75.1708 23.4967 76.1694 23.4967C77.7673 23.4967 78.766 22.2167 78.766 20.571Z" fill="white"/>
<path d="M80.6635 23.9536V14.6279H81.4625V23.9536H80.6635Z" fill="white"/>
<path d="M90.3507 25.965C90.5504 26.0564 90.85 26.0564 90.9499 26.0564C91.4493 26.0564 91.7489 25.8736 92.0485 25.2336L92.6477 24.045L89.5518 17.2793H90.4506L93.147 23.1307L95.8435 17.2793H96.7423L92.9473 25.5079C92.5478 26.3307 91.9486 26.7879 91.0498 26.7879C90.7502 26.7879 90.4506 26.7879 90.2508 26.6964L90.3507 25.965Z" fill="white"/>
<path d="M88.0537 23.9535C87.9539 23.6792 87.9539 23.4963 87.9539 23.3135C87.9539 23.1306 87.9539 22.9477 87.9539 22.7649C87.6543 23.1306 87.2548 23.4049 86.7555 23.6792C86.2561 23.9535 85.7568 24.0449 85.1576 24.0449C84.3586 24.0449 83.7594 23.862 83.3599 23.4963C82.9605 23.1306 82.7607 22.6735 82.7607 22.0335C82.7607 21.3935 83.0603 20.9363 83.6595 20.5706C84.2588 20.2049 85.0577 20.022 86.0564 20.022H87.9539V19.1992C87.9539 18.742 87.7541 18.3763 87.4545 18.102C87.0551 17.8277 86.5557 17.6449 85.9565 17.6449C85.3573 17.6449 84.858 17.7363 84.4585 18.0106C84.059 18.2849 83.8593 18.5592 83.8593 18.9249H83.0603C83.0603 18.3763 83.2601 18.0106 83.8593 17.5535C84.3586 17.1877 85.0577 17.0049 85.9565 17.0049C86.8553 17.0049 87.5544 17.1877 88.0537 17.5535C88.5531 17.9192 88.8527 18.4677 88.8527 19.1992V22.4906C88.8527 22.7649 88.8527 22.9477 88.8527 23.222C88.8527 23.4049 88.9526 23.6792 89.0524 23.862L88.0537 23.9535ZM85.2574 23.4049C85.9565 23.4049 86.4559 23.222 86.9552 23.0392C87.4545 22.7649 87.7541 22.3992 87.9539 21.942V20.662H86.0564C85.3573 20.662 84.7581 20.8449 84.2588 21.1192C83.7594 21.3935 83.5597 21.7592 83.5597 22.1249C83.5597 22.4906 83.6596 22.8563 83.9592 23.0392C84.2588 23.3135 84.7581 23.4049 85.2574 23.4049Z" fill="white"/>
<path d="M24.238 7.03925C24.238 5.57639 25.4364 4.66211 26.8346 4.66211C27.8333 4.66211 28.4325 5.11925 28.8319 5.5764L28.1329 5.94211C27.8333 5.5764 27.4338 5.30211 26.8346 5.30211C25.8359 5.30211 25.1368 5.94211 25.1368 6.94782C25.1368 7.86211 25.8359 8.59354 26.8346 8.59354C27.3339 8.59354 27.8333 8.41068 28.033 8.22782V7.49639H26.535V6.8564H28.9318V8.59354C28.4325 9.05068 27.7334 9.4164 26.9344 9.4164C25.3366 9.32497 24.238 8.41068 24.238 7.03925Z" fill="white"/>
<path d="M29.9305 9.23354V4.66211H33.326V5.39354H30.8293V6.58211H33.326V7.31354H30.8293V8.59354H33.326V9.32497L29.9305 9.23354Z" fill="white"/>
<path d="M35.7228 9.23391V5.39391H34.2248V4.75391H38.1197V5.48533H36.6217V9.32533H35.7228V9.23391Z" fill="white"/>
<path d="M41.1157 9.23354V4.66211H42.0145V9.23354H41.1157Z" fill="white"/>
<path d="M44.4114 9.23391V5.39391H42.9134V4.75391H46.8082V5.48533H45.3102V9.32533H44.4114V9.23391Z" fill="white"/>
<path d="M49.6045 7.03925C49.6045 5.66782 50.703 4.66211 52.1012 4.66211C53.5992 4.66211 54.5979 5.66782 54.5979 7.03925C54.5979 8.41068 53.4993 9.4164 52.1012 9.4164C50.703 9.32497 49.6045 8.41068 49.6045 7.03925ZM53.799 7.03925C53.799 6.12497 53.1997 5.39354 52.2011 5.39354C51.2024 5.39354 50.6032 6.12497 50.6032 7.03925C50.6032 7.95354 51.2024 8.68497 52.2011 8.68497C53.1997 8.68497 53.799 7.95354 53.799 7.03925Z" fill="white"/>
<path d="M59.1919 9.23354L56.5953 5.94211V9.23354H55.6965V4.66211H56.5953L59.092 7.77068V4.75354H59.9908V9.32497H59.1919V9.23354Z" fill="white"/>
<path d="M16.3484 17.8285L6.46145 12.7999C6.16185 12.6171 5.96211 12.6171 5.66251 12.7085L13.7518 20.1142L16.3484 17.8285Z" fill="url(#paint0_linear_1_629)"/>
<path d="M16.3484 22.5824L19.7439 20.8453C20.443 20.4796 20.443 19.931 19.7439 19.5653L16.3484 17.8281L13.8517 20.1138L16.3484 22.5824Z" fill="url(#paint1_linear_1_629)"/>
<path d="M5.66252 12.7998C5.36291 12.8912 5.16318 13.1655 5.16318 13.6227V26.9712C5.16318 27.4284 5.36291 27.7027 5.66252 27.7941L13.7518 20.3884L5.66252 12.7998Z" fill="url(#paint2_linear_1_629)"/>
<path d="M5.66251 27.6114C5.86224 27.7028 6.16185 27.6114 6.46145 27.52L16.3484 22.4914L13.7518 20.1143L5.66251 27.6114Z" fill="url(#paint3_linear_1_629)"/>
<defs>
<linearGradient id="paint0_linear_1_629" x1="12.1054" y1="19.6003" x2="9.7072" y2="8.21727" gradientUnits="userSpaceOnUse">
<stop stop-color="#D7E39E"/>
<stop offset="0.4456" stop-color="#95C4AA"/>
<stop offset="1" stop-color="#00A4B6"/>
</linearGradient>
<linearGradient id="paint1_linear_1_629" x1="11.7511" y1="11.8505" x2="18.1012" y2="23.6967" gradientUnits="userSpaceOnUse">
<stop stop-color="#E72C7C"/>
<stop offset="0.0192" stop-color="#E8327C"/>
<stop offset="0.7039" stop-color="#F8BE81"/>
<stop offset="1" stop-color="#FFEC75"/>
</linearGradient>
<linearGradient id="paint2_linear_1_629" x1="9.58461" y1="23.8852" x2="5.86715" y2="8.21801" gradientUnits="userSpaceOnUse">
<stop stop-color="#8CCBBC"/>
<stop offset="0.0907" stop-color="#7EBEBB"/>
<stop offset="0.5396" stop-color="#467DAD"/>
<stop offset="0.8523" stop-color="#1F5BA3"/>
<stop offset="1" stop-color="#0B4F9E"/>
</linearGradient>
<linearGradient id="paint3_linear_1_629" x1="18.4394" y1="22.869" x2="3.27435" y2="25.1381" gradientUnits="userSpaceOnUse">
<stop stop-color="#E94B30"/>
<stop offset="0.4704" stop-color="#B6506C"/>
<stop offset="0.8353" stop-color="#8D5292"/>
<stop offset="1" stop-color="#78539D"/>
</linearGradient>
</defs>
</svg>
