<svg width="13" height="13" viewBox="0 0 13 13" fill="none" xmlns="http://www.w3.org/2000/svg">
<path d="M6.01703 6.80469C6.8764 6.80469 7.61469 6.49609 8.23187 5.87891C8.84906 5.26172 9.15765 4.51562 9.15765 3.64062C9.15765 2.78125 8.84906 2.04297 8.23187 1.42578C7.61469 0.808594 6.8764 0.5 6.01703 0.5C5.15765 0.5 4.41937 0.820312 3.80219 1.46094C3.185 2.10156 2.8764 2.85938 2.8764 3.73438C2.8764 4.59375 3.18109 5.32031 3.79047 5.91406C4.39984 6.50781 5.14203 6.80469 6.01703 6.80469ZM8.78265 7.25H3.2514C2.40765 7.25 1.65765 7.58984 1.0014 8.26953C0.345154 8.94922 0.0170288 9.73438 0.0170288 10.625V12.5H12.017V10.625C12.017 9.73438 11.6889 8.94922 11.0327 8.26953C10.3764 7.58984 9.6264 7.25 8.78265 7.25Z" fill="black"/>
</svg>
