<svg width="32" height="16" viewBox="0 0 32 16" fill="none" xmlns="http://www.w3.org/2000/svg">
<rect x="0.780029" y="0.5" width="30" height="15" rx="4.5" stroke="black"/>
<path d="M9.00003 8.42H9.92003C10.5334 8.42 10.9967 8.30667 11.31 8.08C11.63 7.85333 11.79 7.48 11.79 6.96C11.79 6.44 11.6434 6.07333 11.35 5.86C11.0634 5.64667 10.6067 5.54 9.98003 5.54H9.00003V8.42ZM8.16003 12V4.8H9.90003C10.3134 4.8 10.6767 4.83333 10.99 4.9C11.31 4.96667 11.6 5.08 11.86 5.24C12.12 5.39333 12.32 5.61333 12.46 5.9C12.6 6.18667 12.67 6.53333 12.67 6.94C12.67 8.42 11.74 9.16 9.88003 9.16H9.00003V12H8.16003ZM14.6739 11.26H15.2839C16.2239 11.26 16.8905 11.0267 17.2839 10.56C17.6839 10.0867 17.8839 9.35333 17.8839 8.36C17.8839 7.35333 17.6905 6.63333 17.3039 6.2C16.9172 5.76 16.2572 5.54 15.3239 5.54H14.6739V11.26ZM13.8339 12V4.8H15.4439C17.6572 4.8 18.7639 5.98667 18.7639 8.36C18.7639 9.57333 18.4739 10.4833 17.8939 11.09C17.3205 11.6967 16.4372 12 15.2439 12H13.8339ZM20.0448 12V4.8H24.1048V5.54H20.8848V7.9H23.1948V8.64H20.8848V12H20.0448Z" fill="black"/>
</svg>
