<svg width="14" height="14" viewBox="0 0 14 14" fill="none" xmlns="http://www.w3.org/2000/svg">
<path fill-rule="evenodd" clip-rule="evenodd" d="M3.52734 12.8826L7.52433e-06 13.6666L0.784008 10.1393C0.267695 9.17357 -0.00164123 8.09508 7.52433e-06 6.99998C7.52433e-06 3.31798 2.98467 0.333313 6.66667 0.333313C10.3487 0.333313 13.3333 3.31798 13.3333 6.99998C13.3333 10.682 10.3487 13.6666 6.66667 13.6666C5.57158 13.6683 4.49309 13.399 3.52734 12.8826ZM3.72067 11.474L4.15601 11.7073C4.92837 12.1201 5.79094 12.3351 6.66667 12.3333C7.72151 12.3333 8.75265 12.0205 9.62972 11.4345C10.5068 10.8484 11.1904 10.0155 11.594 9.04096C11.9977 8.06642 12.1033 6.99406 11.8975 5.9595C11.6917 4.92493 11.1838 3.97462 10.4379 3.22874C9.69203 2.48286 8.74172 1.97491 7.70716 1.76913C6.67259 1.56334 5.60024 1.66895 4.6257 2.07262C3.65116 2.47629 2.8182 3.15988 2.23217 4.03694C1.64614 4.914 1.33334 5.94515 1.33334 6.99998C1.33334 7.88931 1.55001 8.74531 1.96001 9.51065L2.19267 9.94598L1.75601 11.9106L3.72067 11.474Z" fill="#2E2E2E"/>
</svg>
