<svg width="14" height="18" viewBox="0 0 14 18" fill="none" xmlns="http://www.w3.org/2000/svg">
<path fill-rule="evenodd" clip-rule="evenodd" d="M2.84931 0.700814C2.30017 0.778321 1.79163 1.03389 1.40174 1.42829C1.01185 1.8227 0.762157 2.33415 0.690979 2.88415C0.649312 3.13415 0.649312 16.4841 0.690979 16.6341C0.857646 17.2175 1.49098 17.5091 2.01598 17.2175L4.71598 15.3008C6.13265 14.2841 7.31598 13.4425 7.33265 13.4425C7.34931 13.4425 8.53265 14.2758 9.96598 15.3091C10.8593 15.9574 11.7594 16.5963 12.666 17.2258C12.7967 17.2958 12.9427 17.3325 13.091 17.3325C13.2393 17.3325 13.3853 17.2958 13.516 17.2258C13.641 17.1591 13.816 16.9925 13.8826 16.8591C14.016 16.6341 13.9993 17.2175 13.9993 9.79248C13.9993 2.62581 13.9993 2.91748 13.916 2.59248C13.7878 2.1034 13.5189 1.66268 13.1427 1.32494C12.7664 0.987203 12.2993 0.767298 11.7993 0.69248C11.566 0.659147 3.07431 0.659147 2.84931 0.69248V0.700814ZM3.08265 2.51748C2.94164 2.54895 2.8129 2.62092 2.71223 2.72455C2.61156 2.82818 2.54335 2.95896 2.51598 3.10081C2.49098 3.20081 2.48265 14.6175 2.49931 14.6175L4.66598 13.0841L6.89931 11.4841C7.16598 11.3425 7.49931 11.3425 7.76598 11.4841L9.99931 13.0841L12.166 14.6175V3.06748L12.1243 2.96748C12.0858 2.87398 12.0291 2.78903 11.9576 2.71752C11.8861 2.64601 11.8011 2.58935 11.7076 2.55081L11.5993 2.50915H3.08265V2.51748Z" fill="#2E2E2E"/>
</svg>
