<svg width="18" height="18" viewBox="0 0 18 18" fill="none" xmlns="http://www.w3.org/2000/svg">
<path fill-rule="evenodd" clip-rule="evenodd" d="M13.8951 12.7167L17.4642 16.285L16.2851 17.4642L12.7167 13.895C11.389 14.9593 9.73756 15.5382 8.03589 15.5358C3.89589 15.5358 0.535889 12.1758 0.535889 8.03583C0.535889 3.89583 3.89589 0.535828 8.03589 0.535828C12.1759 0.535828 15.5359 3.89583 15.5359 8.03583C15.5383 9.73749 14.9594 11.3889 13.8951 12.7167ZM12.2234 12.0983C13.281 11.0107 13.8716 9.55285 13.8692 8.03583C13.8692 4.81249 11.2584 2.20249 8.03589 2.20249C4.81255 2.20249 2.20256 4.81249 2.20256 8.03583C2.20256 11.2583 4.81255 13.8692 8.03589 13.8692C9.55291 13.8715 11.0108 13.2809 12.0984 12.2233L12.2234 12.0983Z" fill="#242424"/>
</svg>
