<svg width="17" height="16" viewBox="0 0 17 16" fill="none" xmlns="http://www.w3.org/2000/svg">
<path fill-rule="evenodd" clip-rule="evenodd" d="M9.67407 0.980117C9.82638 0.91703 9.99399 0.900537 10.1557 0.932726C10.3174 0.964915 10.4659 1.04434 10.5824 1.16095L16.4157 6.99428C16.572 7.15056 16.6597 7.36248 16.6597 7.58345C16.6597 7.80442 16.572 8.01634 16.4157 8.17262L10.5824 14.006C10.4659 14.1225 10.3174 14.2018 10.1558 14.2339C9.99414 14.2661 9.82661 14.2496 9.67436 14.1865C9.52211 14.1235 9.39197 14.0167 9.3004 13.8797C9.20883 13.7427 9.15994 13.5816 9.1599 13.4168V10.9168H8.2399C6.87512 10.9165 5.55345 11.3948 4.5049 12.2685L1.3599 14.8901C1.21918 15.0074 1.04373 15.075 0.860691 15.0826C0.677654 15.0901 0.497231 15.0372 0.347332 14.9318C0.197433 14.8265 0.0864124 14.6748 0.0314429 14.5C-0.0235267 14.3253 -0.0193814 14.1373 0.0432376 13.9651L1.78157 9.18678C2.30753 7.74055 3.26565 6.49112 4.52594 5.60799C5.78622 4.72487 7.28767 4.25081 8.82657 4.25012H9.1599V1.75012C9.15986 1.58531 9.20869 1.4242 9.30021 1.28714C9.39173 1.15008 9.52183 1.04324 9.67407 0.980117ZM10.8266 3.76178V5.08345C10.8266 5.30446 10.7388 5.51643 10.5825 5.67271C10.4262 5.82899 10.2143 5.91678 9.99324 5.91678H8.82657C7.62979 5.91757 6.46221 6.28645 5.48221 6.97338C4.5022 7.66031 3.75719 8.63204 3.34824 9.75678L2.66574 11.6318L3.43824 10.9885C4.78618 9.86517 6.48528 9.25005 8.2399 9.25012H9.99324C10.2143 9.25012 10.4262 9.33791 10.5825 9.49419C10.7388 9.65048 10.8266 9.86244 10.8266 10.0835V11.4051L14.6482 7.58345L10.8266 3.76178Z" fill="#2E2E2E"/>
</svg>
