<svg width="28" height="23" viewBox="0 0 28 23" fill="none" xmlns="http://www.w3.org/2000/svg">
<path fill-rule="evenodd" clip-rule="evenodd" d="M27.5493 2.94749C26.5314 3.39774 25.452 3.69345 24.3467 3.82482C25.5117 3.12806 26.3836 2.0315 26.8 0.739485C25.7067 1.39015 24.508 1.84615 23.2587 2.09282C22.4195 1.19492 21.3072 0.599436 20.0946 0.398932C18.8821 0.198427 17.6373 0.40414 16.5537 0.984089C15.4701 1.56404 14.6085 2.48573 14.1028 3.60588C13.5971 4.72602 13.4757 5.98186 13.7573 7.17815C11.5402 7.06702 9.37112 6.49085 7.39106 5.48704C5.411 4.48323 3.66418 3.07422 2.26401 1.35149C1.7684 2.20275 1.50795 3.17045 1.50934 4.15549C1.50934 6.08882 2.49334 7.79682 3.98934 8.79682C3.10402 8.76895 2.23819 8.52986 1.46401 8.09949V8.16882C1.46428 9.45642 1.90983 10.7043 2.72514 11.7009C3.54044 12.6975 4.67532 13.3815 5.93734 13.6368C5.1155 13.8595 4.25375 13.8924 3.41734 13.7328C3.77317 14.8411 4.46669 15.8104 5.4008 16.505C6.33491 17.1995 7.46285 17.5845 8.62668 17.6062C7.46998 18.5146 6.14558 19.1861 4.72918 19.5824C3.31279 19.9786 1.83218 20.0918 0.372009 19.9155C2.92094 21.5547 5.88814 22.425 8.91868 22.4221C19.176 22.4221 24.7853 13.9248 24.7853 6.55549C24.7853 6.31549 24.7787 6.07282 24.768 5.83549C25.8598 5.04638 26.8021 4.06884 27.5507 2.94882L27.5493 2.94749Z" fill="#6D6D6D"/>
</svg>
