<svg width="24" height="25" viewBox="0 0 24 25" fill="none" xmlns="http://www.w3.org/2000/svg">
<path fill-rule="evenodd" clip-rule="evenodd" d="M16.536 24.4062V15.1183H19.6467L20.112 11.5076H16.536V9.20358C16.536 8.15825 16.8267 7.44492 18.3253 7.44492H20.2373V4.21558C19.3117 4.11738 18.3815 4.06975 17.4507 4.07292C14.6947 4.07292 12.808 5.75558 12.808 8.84625V11.5076H9.69067V15.1183H12.808V24.4062H1.33333C0.979711 24.4062 0.640573 24.2658 0.390524 24.0157C0.140476 23.7657 0 23.4265 0 23.0729V1.73958C0 1.38596 0.140476 1.04682 0.390524 0.796774C0.640573 0.546726 0.979711 0.40625 1.33333 0.40625H22.6667C23.0203 0.40625 23.3594 0.546726 23.6095 0.796774C23.8595 1.04682 24 1.38596 24 1.73958V23.0729C24 23.4265 23.8595 23.7657 23.6095 24.0157C23.3594 24.2658 23.0203 24.4062 22.6667 24.4062H16.536Z" fill="#6D6D6D"/>
</svg>
