<svg width="28" height="27" viewBox="0 0 28 27" fill="none" xmlns="http://www.w3.org/2000/svg">
<path d="M14 9.40658C12.9392 9.40658 11.9217 9.828 11.1716 10.5781C10.4214 11.3283 10 12.3457 10 13.4066C10 14.4674 10.4214 15.4849 11.1716 16.235C11.9217 16.9851 12.9392 17.4066 14 17.4066C15.0609 17.4066 16.0783 16.9851 16.8284 16.235C17.5786 15.4849 18 14.4674 18 13.4066C18 12.3457 17.5786 11.3283 16.8284 10.5781C16.0783 9.828 15.0609 9.40658 14 9.40658ZM14 6.73991C15.7681 6.73991 17.4638 7.44229 18.7141 8.69253C19.9643 9.94277 20.6667 11.6385 20.6667 13.4066C20.6667 15.1747 19.9643 16.8704 18.7141 18.1206C17.4638 19.3709 15.7681 20.0732 14 20.0732C12.2319 20.0732 10.5362 19.3709 9.28598 18.1206C8.03573 16.8704 7.33335 15.1747 7.33335 13.4066C7.33335 11.6385 8.03573 9.94277 9.28598 8.69253C10.5362 7.44229 12.2319 6.73991 14 6.73991ZM22.6667 6.40658C22.6667 6.8486 22.4911 7.27253 22.1785 7.58509C21.866 7.89765 21.442 8.07324 21 8.07324C20.558 8.07324 20.1341 7.89765 19.8215 7.58509C19.5089 7.27253 19.3334 6.8486 19.3334 6.40658C19.3334 5.96455 19.5089 5.54063 19.8215 5.22806C20.1341 4.9155 20.558 4.73991 21 4.73991C21.442 4.73991 21.866 4.9155 22.1785 5.22806C22.4911 5.54063 22.6667 5.96455 22.6667 6.40658ZM14 2.73991C10.7014 2.73991 10.1627 2.74924 8.62802 2.81724C7.58269 2.86658 6.88135 3.00658 6.23069 3.25991C5.65202 3.48391 5.23469 3.75191 4.79069 4.19724C4.37336 4.60044 4.05249 5.09269 3.85202 5.63724C3.59869 6.29058 3.45869 6.99058 3.41069 8.03458C3.34135 9.50658 3.33335 10.0212 3.33335 13.4066C3.33335 16.7052 3.34269 17.2439 3.41069 18.7786C3.46002 19.8226 3.60002 20.5252 3.85202 21.1746C4.07869 21.7546 4.34535 22.1719 4.78802 22.6146C5.23735 23.0626 5.65469 23.3306 6.22802 23.5519C6.88669 23.8066 7.58802 23.9479 8.62802 23.9959C10.1 24.0652 10.6147 24.0732 14 24.0732C17.2987 24.0732 17.8374 24.0639 19.372 23.9959C20.4147 23.9466 21.1174 23.8066 21.768 23.5546C22.3454 23.3292 22.7654 23.0612 23.208 22.6186C23.6574 22.1692 23.9254 21.7519 24.1467 21.1786C24.4 20.5212 24.5414 19.8186 24.5894 18.7786C24.6587 17.3066 24.6667 16.7919 24.6667 13.4066C24.6667 10.1079 24.6574 9.56924 24.5894 8.03458C24.54 6.99191 24.4 6.28791 24.1467 5.63724C23.9457 5.09324 23.6255 4.60119 23.2094 4.19724C22.8063 3.7797 22.314 3.4588 21.7694 3.25858C21.116 3.00524 20.4147 2.86524 19.372 2.81724C17.9 2.74791 17.3854 2.73991 14 2.73991ZM14 0.0732422C17.6227 0.0732422 18.0747 0.0865754 19.496 0.153242C20.916 0.219909 21.8827 0.442576 22.7334 0.773242C23.6134 1.11191 24.3547 1.57058 25.096 2.31058C25.774 2.9771 26.2986 3.78336 26.6334 4.67324C26.9627 5.52258 27.1867 6.49058 27.2534 7.91058C27.316 9.33191 27.3334 9.78391 27.3334 13.4066C27.3334 17.0292 27.32 17.4812 27.2534 18.9026C27.1867 20.3226 26.9627 21.2892 26.6334 22.1399C26.2996 23.0303 25.7748 23.8367 25.096 24.5026C24.4293 25.1803 23.6231 25.7049 22.7334 26.0399C21.884 26.3692 20.916 26.5932 19.496 26.6599C18.0747 26.7226 17.6227 26.7399 14 26.7399C10.3774 26.7399 9.92535 26.7266 8.50402 26.6599C7.08402 26.5932 6.11735 26.3692 5.26669 26.0399C4.37646 25.7059 3.57006 25.1812 2.90402 24.5026C2.2259 23.8362 1.70126 23.0299 1.36669 22.1399C1.03602 21.2906 0.813354 20.3226 0.746687 18.9026C0.68402 17.4812 0.666687 17.0292 0.666687 13.4066C0.666687 9.78391 0.68002 9.33191 0.746687 7.91058C0.813354 6.48924 1.03602 5.52391 1.36669 4.67324C1.70034 3.78281 2.22509 2.97634 2.90402 2.31058C3.57025 1.63222 4.37659 1.10755 5.26669 0.773242C6.11735 0.442576 7.08269 0.219909 8.50402 0.153242C9.92535 0.0905754 10.3774 0.0732422 14 0.0732422Z" fill="#6D6D6D"/>
</svg>
