<svg width="14" height="14" viewBox="0 0 14 14" fill="none" xmlns="http://www.w3.org/2000/svg">
<path fill-rule="evenodd" clip-rule="evenodd" d="M7.00068 1.85764C8.56668 0.451638 10.9867 0.498305 12.4953 2.00964C14.0033 3.52164 14.0553 5.92964 12.6527 7.5003L6.99935 13.1616L1.34735 7.5003C-0.0553192 5.92964 -0.00265234 3.51764 1.50468 2.00964C3.01468 0.500305 5.43001 0.449638 7.00068 1.85764ZM11.5513 2.95164C10.5513 1.9503 8.93801 1.90964 7.89135 2.84964L7.00135 3.6483L6.11068 2.8503C5.06068 1.90897 3.45068 1.9503 2.44801 2.95297C1.45468 3.9463 1.40468 5.5363 2.32001 6.58697L7.00001 11.2743L11.68 6.58764C12.596 5.5363 12.546 3.9483 11.5513 2.95164Z" fill="#2E2E2E"/>
</svg>
