<svg width="130" height="50" viewBox="0 0 130 50" fill="none" xmlns="http://www.w3.org/2000/svg">
<path d="M0.963193 6.45542C3.1476 4.26733 5.37736 2.06848 7.675 0C7.97808 0.456974 7.85376 33.4286 7.87224 36.3778L37.4062 36.3741C37.3746 38.6227 37.4633 40.8696 37.3971 43.1185C39.1605 40.9559 41.6611 38.2467 43.7343 36.3828C50.4437 36.1846 68.7199 36.3667 75.4344 36.367L110.421 36.3711C116.662 36.3721 122.909 36.438 129.149 36.3576C129.135 36.4635 129.14 36.4773 129.085 36.5888C128.783 37.203 122.814 42.8988 122.25 43.1098C120.976 43.4071 117.787 43.18 116.333 43.178L101.828 43.1662L66.9784 43.1723L44.2998 43.176C42.0176 43.177 39.7183 43.2354 37.4385 43.1215C35.3861 45.5159 32.9903 47.7786 30.7471 50C30.6956 47.7371 30.6729 45.4739 30.6789 43.2106C20.7787 43.054 10.858 43.1844 0.955466 43.182C0.746132 37.9117 0.915819 32.592 0.918843 27.3156C0.923211 20.3686 0.813668 13.3997 0.963193 6.45542Z" fill="#242424"/>
<path d="M24.7391 21.8477L25.9768 21.9382C27.7479 21.9382 29.2523 21.3194 30.49 20.0817C31.7277 18.8439 32.3466 17.3043 32.3466 15.4628C32.3466 13.0478 31.2849 11.2566 29.1617 10.0893C27.9944 9.44527 26.7466 9.07294 25.4183 8.97232C24.8548 8.922 24.3315 8.89684 23.8485 8.89684H22.8221C22.6108 8.89684 22.4246 8.90188 22.2636 8.91194V29.1684H14.5656V7.81006C16.9203 7.81006 18.8272 7.81006 20.2863 7.81006C21.7454 7.81006 22.6963 7.81509 23.1391 7.82516C23.5819 7.83522 23.9743 7.85031 24.3165 7.87044C24.6687 7.8805 24.9957 7.8956 25.2976 7.91572C25.7403 7.95597 26.3642 8.05157 27.1693 8.20251C27.9843 8.35345 28.7894 8.64024 29.5843 9.06288C30.3793 9.48552 31.0636 10.0088 31.6371 10.6327C32.8749 11.961 33.4937 13.5408 33.4937 15.3723C33.4937 17.1836 32.9202 18.7836 31.773 20.1722C30.5956 21.5911 29.0258 22.5068 27.0636 22.9194C27.9994 25.8175 29.1919 27.5483 30.6409 28.1118C31.0837 28.2828 31.5265 28.3684 31.9692 28.3684L33.1617 28.0816C33.534 28.0816 33.7201 28.2728 33.7201 28.6552C33.7201 29.1885 33.0963 29.4552 31.8485 29.4552C30.9428 29.4552 30.1126 29.2036 29.3579 28.7004C28.1806 27.996 27.1793 26.6275 26.3542 24.5948L25.9164 23.5231C25.846 23.3521 25.7806 23.2464 25.7202 23.2062C25.6699 23.1659 25.5743 23.1458 25.4334 23.1458C25.3026 23.1458 25.1869 23.1558 25.0863 23.176L24.724 23.1911C24.3215 23.1911 24.0448 23.1156 23.8938 22.9646C23.7529 22.8137 23.6825 22.6577 23.6825 22.4967C23.6825 22.064 24.0347 21.8477 24.7391 21.8477ZM51.1841 25.5005C51.5766 25.5005 51.7728 25.6816 51.7728 26.0439C51.7728 26.3156 51.5967 26.6376 51.2445 27.0099C49.6546 28.6401 47.476 29.4552 44.7087 29.4552C42.2232 29.4552 40.1302 28.7055 38.4295 27.2061C36.6685 25.6464 35.7881 23.6741 35.7881 21.2892C35.7881 18.854 36.583 16.8515 38.1729 15.2817C39.8534 13.6113 42.0874 12.7761 44.8748 12.7761C47.1087 12.7761 48.9854 13.4553 50.5049 14.8138C52.1451 16.2729 52.9653 18.1898 52.9653 20.5647C52.9653 20.9068 52.9552 21.2691 52.9351 21.6515H42.9729V28.1269C43.6572 28.2677 44.427 28.3382 45.2823 28.3382C47.0936 28.3382 48.6383 27.7394 49.9162 26.542C50.1779 26.2803 50.364 26.0741 50.4747 25.9231C50.7062 25.6414 50.9426 25.5005 51.1841 25.5005ZM47.154 14.1647C46.4999 13.9735 45.7603 13.8779 44.9351 13.8779C44.11 13.8779 43.4559 13.9333 42.9729 14.044V20.5496H47.154V14.1647ZM54.2483 13.0478H61.0859L65.1916 21.5156L67.7727 16.3836C68.306 15.2867 68.6381 14.4716 68.7689 13.9383C68.9098 13.405 69.0456 13.0779 69.1764 12.9572C69.3173 12.8364 69.4834 12.7761 69.6745 12.7761C69.8758 12.7761 70.0318 12.8415 70.1425 12.9723C70.2532 13.1031 70.3085 13.2339 70.3085 13.3647C70.3085 13.4955 70.2934 13.6264 70.2632 13.7572C70.2431 13.888 70.1978 14.0641 70.1274 14.2855C69.9764 14.6981 69.6595 15.4125 69.1764 16.4289L62.535 29.8476L54.2483 13.0478ZM76.1198 10.4063C75.0833 10.4063 74.2732 10.1748 73.6896 9.71193C73.106 9.24904 72.8141 8.64024 72.8141 7.88553C72.8141 7.25158 73.1362 6.70818 73.7802 6.25536C74.4644 5.77234 75.189 5.53084 75.9537 5.53084C76.7185 5.53084 77.3072 5.60631 77.7198 5.75725C78.1424 5.90819 78.4996 6.10442 78.7914 6.34592C79.3751 6.839 79.6669 7.41258 79.6669 8.06666C79.6669 8.72075 79.3348 9.2742 78.6707 9.72703C78.0065 10.1799 77.1562 10.4063 76.1198 10.4063ZM72.95 13.0478H79.4405V29.1684H72.95V13.0478ZM98.3988 25.5005C98.7913 25.5005 98.9875 25.6816 98.9875 26.0439C98.9875 26.3156 98.8114 26.6376 98.4592 27.0099C96.8693 28.6401 94.6907 29.4552 91.9234 29.4552C89.4379 29.4552 87.3448 28.7055 85.6442 27.2061C83.8832 25.6464 83.0027 23.6741 83.0027 21.2892C83.0027 18.854 83.7977 16.8515 85.3876 15.2817C87.0681 13.6113 89.302 12.7761 92.0894 12.7761C94.3234 12.7761 96.2001 13.4553 97.7196 14.8138C99.3598 16.2729 100.18 18.1898 100.18 20.5647C100.18 20.9068 100.17 21.2691 100.15 21.6515H90.1876V28.1269C90.8718 28.2677 91.6416 28.3382 92.497 28.3382C94.3083 28.3382 95.8529 27.7394 97.1309 26.542C97.3925 26.2803 97.5787 26.0741 97.6894 25.9231C97.9208 25.6414 98.1573 25.5005 98.3988 25.5005ZM94.3687 14.1647C93.7146 13.9735 92.975 13.8779 92.1498 13.8779C91.3247 13.8779 90.6706 13.9333 90.1876 14.044V20.5496H94.3687V14.1647ZM101.463 13.0478H108.301L112.165 21.1684L116.723 12.3534L121.478 21.2741L123.636 16.3836C124.16 15.1861 124.472 14.3559 124.572 13.893C124.683 13.4201 124.809 13.1182 124.95 12.9874C125.09 12.8465 125.256 12.7761 125.448 12.7761C125.639 12.7761 125.79 12.8465 125.9 12.9874C126.021 13.1283 126.082 13.254 126.082 13.3647C126.082 13.4654 126.072 13.566 126.051 13.6666C126.041 13.7572 126.001 13.9081 125.931 14.1194C125.86 14.3207 125.744 14.5974 125.583 14.9496L119.078 29.8476L114.036 20.2024L109.161 29.8476L101.463 13.0478Z" fill="#242424"/>
</svg>
