<svg width="13" height="15" viewBox="0 0 13 15" fill="none" xmlns="http://www.w3.org/2000/svg">
<path d="M10.8572 3.41672C10.8219 3.39908 10.7734 3.37261 10.7116 3.33733C10.6498 3.30204 10.6013 3.27558 10.566 3.25793C10.2485 3.01093 10.0279 2.81685 9.90442 2.6757C9.49862 2.23462 9.23397 1.70532 9.11047 1.0878L9.084 0.505569H6.78155V9.50368C6.78155 9.66247 6.77272 9.78597 6.75508 9.87419V9.90065V9.92712C6.70215 10.6152 6.37575 11.1445 5.77587 11.515C5.47594 11.6738 5.14954 11.7532 4.79667 11.7532C4.24972 11.7532 3.78659 11.5635 3.40725 11.1842C3.02792 10.8049 2.83826 10.3417 2.83826 9.79479C2.83826 9.24785 3.02792 8.7803 3.40725 8.39215C3.78659 8.00399 4.24972 7.80992 4.79667 7.80992C5.00839 7.80992 5.21129 7.83638 5.40536 7.88931V5.53393C4.13504 5.35749 3.02351 5.68389 2.07077 6.51313C1.66497 6.866 1.33857 7.2718 1.09156 7.73052C0.773984 8.27747 0.597551 8.93027 0.562264 9.68893C0.544621 10.2182 0.632837 10.7299 0.826914 11.2239V11.2504C0.968061 11.6562 1.17978 12.0355 1.46207 12.3884C1.77966 12.7765 2.11488 13.0941 2.46775 13.3411C2.80297 13.5705 3.16907 13.7425 3.56604 13.8572C3.96302 13.9719 4.27619 14.038 4.50555 14.0557H4.8496C5.46712 14.0557 6.05817 13.9233 6.62276 13.6587C6.88741 13.5352 7.13882 13.3852 7.37701 13.2088C7.61519 13.0323 7.78722 12.8912 7.89308 12.7853L8.05187 12.6001C8.36945 12.1943 8.62528 11.762 8.81935 11.3033C9.01343 10.7916 9.11047 10.2976 9.11047 9.82126V5.03109L9.50744 5.29574C9.86031 5.5251 10.319 5.71918 10.8836 5.87797L12.3127 6.06323V3.76077C11.8717 3.79605 11.3865 3.68137 10.8572 3.41672Z" fill="black"/>
</svg>
