<svg width="14" height="11" viewBox="0 0 14 11" fill="none" xmlns="http://www.w3.org/2000/svg">
<path d="M2.63219 3.5731H3.66432C4.58178 3.5731 5.0405 3.93479 5.0405 4.65816C5.0405 5.43447 4.58178 5.82263 3.66432 5.82263H3.37321V7.06648H2.63219V3.5731ZM3.66432 5.2404C4.05248 5.2404 4.24655 5.07278 4.24655 4.73756C4.24655 4.40234 4.05248 4.23472 3.66432 4.23472H3.37321V5.2404H3.66432ZM5.94031 3.5731H6.86659C7.27239 3.48488 7.64731 3.56869 7.99135 3.82452C8.3354 4.08034 8.52507 4.41116 8.56035 4.81695V5.2404C8.63093 5.68148 8.53389 6.07845 8.26924 6.43132C8.00459 6.78419 7.66054 6.96944 7.2371 6.98709H6.81366H5.99325L5.94031 3.5731ZM6.86659 6.40486C7.20181 6.40486 7.43559 6.31664 7.56791 6.14021C7.70024 5.96377 7.7664 5.66384 7.7664 5.2404C7.7664 4.8346 7.70024 4.5523 7.56791 4.39351C7.43559 4.23472 7.20181 4.15533 6.86659 4.15533H6.73427V6.40486H6.86659ZM9.51309 3.5731H11.7097V4.23472H10.2276V5.02867H11.3392V5.6903H10.2276V7.14588H9.51309V3.5731ZM12.0008 10.2158H2.04996C1.60887 10.1805 1.24277 9.99969 0.951657 9.67329C0.660542 9.34689 0.514984 8.96314 0.514984 8.52206V2.03813C0.514984 1.63233 0.660542 1.27064 0.951657 0.95306C1.24277 0.63548 1.60887 0.459046 2.04996 0.423759H12.0537C12.4948 0.459046 12.8609 0.631069 13.152 0.939828C13.4432 1.24859 13.5887 1.61469 13.5887 2.03813V8.52206C13.5887 8.96314 13.4343 9.34689 13.1256 9.67329C12.8168 9.99969 12.4419 10.1805 12.0008 10.2158ZM2.28814 1.08539C1.9882 1.12067 1.7412 1.23977 1.54712 1.44266C1.35304 1.64556 1.256 1.88816 1.256 2.17045V8.38973C1.256 8.68967 1.35745 8.9455 1.56035 9.15722C1.76325 9.36894 2.00585 9.4748 2.28814 9.4748H11.7626C12.0449 9.4748 12.2875 9.36894 12.4904 9.15722C12.6933 8.9455 12.7948 8.68967 12.7948 8.38973V2.17045C12.7948 1.87051 12.6933 1.61469 12.4904 1.40297C12.2875 1.19125 12.0449 1.08539 11.7626 1.08539H2.28814Z" fill="black"/>
</svg>
