<svg width="14" height="14" viewBox="0 0 14 14" fill="none" xmlns="http://www.w3.org/2000/svg">
<path d="M4.48474 1.89474C4.96111 1.8771 5.86092 1.86827 7.18417 1.86827C8.50742 1.86827 9.40723 1.8771 9.8836 1.89474C10.4129 1.91238 10.8275 1.99178 11.1275 2.13293C11.4098 2.23878 11.6656 2.4064 11.8949 2.63576C12.1067 2.86512 12.2655 3.12095 12.3713 3.40325C12.5125 3.6679 12.5919 4.07369 12.6095 4.62064C12.6448 5.57338 12.6624 6.47319 12.6624 7.32007C12.6624 8.16695 12.6448 9.06676 12.6095 10.0195C12.5919 10.5312 12.5125 10.9458 12.3713 11.2634C12.2831 11.5104 12.1243 11.7662 11.8949 12.0308C11.7009 12.2249 11.445 12.3925 11.1275 12.5337C10.757 12.6572 10.3423 12.7278 9.8836 12.7454C8.93086 12.7807 8.03105 12.7983 7.18417 12.7983C6.33729 12.7983 5.43748 12.7807 4.48474 12.7454C4.02601 12.7278 3.61139 12.6572 3.24088 12.5337C2.9233 12.3925 2.66747 12.2249 2.4734 12.0308C2.24403 11.7662 2.08524 11.5104 1.99703 11.2634C1.85588 10.9458 1.77648 10.5312 1.75884 10.0195C1.72355 9.06676 1.70591 8.16695 1.70591 7.32007C1.70591 6.47319 1.72355 5.57338 1.75884 4.62064C1.77648 4.07369 1.85588 3.6679 1.99703 3.40325C2.10289 3.12095 2.26168 2.86512 2.4734 2.63576C2.70276 2.4064 2.95859 2.23878 3.24088 2.13293C3.54082 1.99178 3.95544 1.91238 4.48474 1.89474ZM9.93653 0.703814C9.46016 0.668527 8.54271 0.650884 7.18417 0.650884C5.82563 0.650884 4.90818 0.668527 4.43181 0.703814C3.81429 0.721457 3.27617 0.818496 2.81744 0.994928C2.34107 1.18901 1.9441 1.44483 1.62652 1.76241C1.32658 2.06235 1.07075 2.45933 0.85903 2.95334C0.682596 3.41207 0.585558 3.95019 0.567914 4.56771C0.532627 5.04408 0.514984 5.96153 0.514984 7.32007C0.514984 8.67861 0.532627 9.59606 0.567914 10.0724C0.585558 10.69 0.682596 11.2281 0.85903 11.6868C1.05311 12.1632 1.30893 12.5601 1.62652 12.8777C1.92645 13.1777 2.32343 13.4335 2.81744 13.6452C3.25853 13.804 3.79665 13.9099 4.43181 13.9628C4.90818 13.9804 5.82563 13.9893 7.18417 13.9893C8.54271 13.9893 9.46016 13.9804 9.93653 13.9628C10.5717 13.9099 11.1098 13.804 11.5509 13.6452C12.0273 13.4511 12.4242 13.1953 12.7418 12.8777C13.0594 12.5601 13.3152 12.1632 13.5093 11.6868C13.6681 11.2457 13.774 10.7076 13.8269 10.0724C13.8445 9.59606 13.8534 8.67861 13.8534 7.32007C13.8534 5.96153 13.8445 5.04408 13.8269 4.56771C13.774 3.93255 13.6681 3.39442 13.5093 2.95334C13.3505 2.51226 13.0947 2.11528 12.7418 1.76241C12.4242 1.44483 12.0273 1.18901 11.5509 0.994928C11.0922 0.818496 10.5541 0.721457 9.93653 0.703814ZM9.59249 4.91175C9.59249 4.91175 9.42488 4.74414 9.08965 4.40892C8.75443 4.07369 8.11927 3.90608 7.18417 3.90608C6.24907 3.90608 5.4463 4.24131 4.77585 4.91175C4.10541 5.5822 3.77018 6.38497 3.77018 7.32007C3.77018 8.27281 4.10541 9.08 4.77585 9.74162C5.4463 10.4032 6.24907 10.7341 7.18417 10.7341C8.11927 10.7341 8.92204 10.3988 9.59249 9.72839C10.2629 9.05794 10.5982 8.25517 10.5982 7.32007C10.5982 6.38497 10.2629 5.5822 9.59249 4.91175ZM8.74561 8.88151C8.74561 8.88151 8.63534 8.99178 8.41479 9.21232C8.19425 9.43286 7.78405 9.54313 7.18417 9.54313C6.5843 9.54313 6.06382 9.32259 5.62273 8.88151C5.18165 8.44042 4.96111 7.91994 4.96111 7.32007C4.96111 6.7202 5.18165 6.19972 5.62273 5.75863C6.06382 5.31755 6.5843 5.09701 7.18417 5.09701C7.78405 5.09701 8.30452 5.31755 8.74561 5.75863C9.18669 6.19972 9.40723 6.7202 9.40723 7.32007C9.40723 7.91994 9.18669 8.44042 8.74561 8.88151ZM11.5509 3.77376C11.5509 3.98548 11.4715 4.17073 11.3127 4.32952C11.1539 4.48831 10.9687 4.56771 10.757 4.56771C10.5276 4.56771 10.3335 4.48831 10.1747 4.32952C10.0159 4.17073 9.93653 3.98548 9.93653 3.77376C9.93653 3.54439 10.0159 3.35032 10.1747 3.19153C10.3335 3.03274 10.5276 2.95334 10.757 2.95334C10.9687 2.95334 11.1539 3.03274 11.3127 3.19153C11.4715 3.35032 11.5509 3.54439 11.5509 3.77376Z" fill="black"/>
</svg>
