<svg width="12" height="12" viewBox="0 0 12 12" fill="none" xmlns="http://www.w3.org/2000/svg">
<path d="M7.71094 7.23047C8.25781 6.46484 8.53125 5.61328 8.53125 4.67578C8.53125 3.48828 8.11328 2.48047 7.27734 1.65234C6.44141 0.824219 5.4375 0.410156 4.26562 0.410156C3.09375 0.410156 2.08984 0.824219 1.25391 1.65234C0.417969 2.48047 0 3.48828 0 4.67578C0 5.87891 0.417969 6.89453 1.25391 7.72266C2.08984 8.55078 3.09375 8.96484 4.26562 8.96484C5.125 8.96484 5.89844 8.73828 6.58594 8.28516L10.125 11.7305L11.1562 10.6758L7.71094 7.23047ZM6.48047 6.91406C6.48047 6.91406 6.32617 7.06836 6.01758 7.37695C5.70898 7.68555 5.125 7.83984 4.26562 7.83984C3.40625 7.83984 2.66797 7.53125 2.05078 6.91406C1.43359 6.29688 1.125 5.55078 1.125 4.67578C1.125 3.81641 1.43359 3.07812 2.05078 2.46094C2.66797 1.84375 3.40625 1.53516 4.26562 1.53516C5.125 1.53516 5.86328 1.84375 6.48047 2.46094C7.09766 3.07812 7.40625 3.81641 7.40625 4.67578C7.40625 5.55078 7.09766 6.29688 6.48047 6.91406Z" fill="black"/>
</svg>
