<svg width="15" height="13" viewBox="0 0 15 13" fill="none" xmlns="http://www.w3.org/2000/svg">
<path d="M6.16306 2.78349V3.5425L6.11911 4.88449H6.20712C6.41658 4.32713 6.78858 3.84553 7.27499 3.50212C7.7614 3.15871 8.33983 2.96932 8.93515 2.9585H9.30014V11.2745C9.30014 12.4745 8.60009 12.8505 8.17709 12.9085V12.9965H12.7861V12.9085C12.3191 12.8505 11.7221 12.4715 11.7221 11.2745V2.9585H12.0871C12.6825 2.96919 13.2608 3.15852 13.7473 3.50195C14.2337 3.84538 14.6057 4.32705 14.815 4.88449H14.903L14.8591 3.5425V2.78349H6.16306Z" fill="black"/>
<path d="M2.95908 10.3445C2.36038 10.2858 1.79259 10.0507 1.32761 9.66901C0.862622 9.28734 0.521429 8.77626 0.347137 8.20049H0.24704L0.276093 9.2505V10.2285C1.17322 10.4161 2.0876 10.5089 3.00412 10.5055C5.03212 10.5055 6.98715 9.55749 6.98715 7.38349C6.98715 5.92449 6.20014 4.90349 4.27414 4.17349C2.96114 3.67349 2.17404 3.0935 2.17404 1.9265C2.17617 1.68082 2.22865 1.43817 2.32809 1.21351C2.42754 0.988845 2.57186 0.786917 2.75229 0.620163C2.93272 0.453409 3.14538 0.325359 3.37717 0.243896C3.60896 0.162434 3.85498 0.129285 4.10007 0.146492C5.40007 0.146492 6.10006 1.0955 6.52206 2.2615H6.6091L6.58005 1.24049V0.237495C5.77029 0.0965183 4.95093 0.0182846 4.12912 0.00349426C1.64912 0.00349426 0.262054 1.20349 0.262054 2.98049C0.262054 4.75749 1.47312 5.4745 2.80112 6.0295C4.21712 6.6135 4.97507 7.22949 4.97507 8.43649C4.99708 8.70195 4.95926 8.96897 4.86435 9.21786C4.76944 9.46675 4.61991 9.69116 4.42673 9.87456C4.23354 10.058 4.00162 10.1957 3.74814 10.2775C3.49466 10.3594 3.22608 10.3833 2.96213 10.3475" fill="black"/>
</svg>
