<svg width="6" height="4" viewBox="0 0 6 4" fill="none" xmlns="http://www.w3.org/2000/svg">
<mask id="path-1-inside-1_2_2532" fill="white">
<path d="M0 0.25H6L3 3.25L0 0.25Z"/>
</mask>
<path d="M0 0.25V-2.75H-7.24264L-2.12132 2.37132L0 0.25ZM6 0.25L8.12132 2.37132L13.2426 -2.75H6V0.25ZM3 3.25L0.87868 5.37132L3 7.49264L5.12132 5.37132L3 3.25ZM0 3.25H6V-2.75H0V3.25ZM3.87868 -1.87132L0.87868 1.12868L5.12132 5.37132L8.12132 2.37132L3.87868 -1.87132ZM5.12132 1.12868L2.12132 -1.87132L-2.12132 2.37132L0.87868 5.37132L5.12132 1.12868Z" fill="#616161" mask="url(#path-1-inside-1_2_2532)"/>
</svg>
