<svg width="12" height="12" viewBox="0 0 12 12" fill="none" xmlns="http://www.w3.org/2000/svg">
<path d="M3.27275 8.67537C3.55504 8.99295 3.69619 9.337 3.69619 9.70751C3.69619 10.078 3.55504 10.4221 3.27275 10.7396C2.99045 11.0219 2.64641 11.1631 2.24061 11.1631C1.83481 11.1631 1.49077 11.0219 1.20847 10.7396C0.926181 10.4574 0.785034 10.1133 0.785034 9.70751C0.785034 9.30171 0.926181 8.95767 1.20847 8.67537C1.49077 8.39308 1.83481 8.25193 2.24061 8.25193C2.64641 8.25193 2.99045 8.39308 3.27275 8.67537ZM7.56008 10.6338C7.56008 10.7926 7.51597 10.9161 7.42776 11.0043C7.35718 11.1102 7.2425 11.1631 7.08371 11.1631H6.05157C5.92807 11.1631 5.82221 11.119 5.73399 11.0308C5.62813 10.9602 5.5752 10.8543 5.5752 10.7132C5.46934 9.56636 5.0018 8.57833 4.17256 7.7491C3.36096 6.9375 2.37294 6.47878 1.20847 6.37292C1.08497 6.33763 0.987933 6.2847 0.917359 6.21413C0.829143 6.14355 0.785034 6.03769 0.785034 5.89655V4.86441C0.785034 4.70562 0.837964 4.59094 0.943824 4.52036C1.0144 4.43215 1.12026 4.38804 1.2614 4.38804H1.31433C2.09064 4.44097 2.85813 4.64387 3.61679 4.99673C4.34017 5.33196 4.99297 5.79069 5.5752 6.37292C6.13979 6.90222 6.59852 7.55502 6.95139 8.33133C7.26897 9.01942 7.47186 9.7869 7.56008 10.6338ZM11.424 10.6603C11.4416 10.7838 11.3975 10.8984 11.2917 11.0043C11.2211 11.1102 11.1064 11.1631 10.9476 11.1631H9.86254C9.75668 11.1631 9.642 11.119 9.51849 11.0308C9.43028 10.9425 9.38617 10.8367 9.38617 10.7132C9.29795 9.58401 9.04212 8.55187 8.61868 7.61677C8.1776 6.64639 7.59537 5.79951 6.87199 5.07613C6.14861 4.35275 5.30173 3.77052 4.33135 3.32944C3.32568 2.87071 2.29354 2.61488 1.23494 2.56195C1.09379 2.56195 0.987933 2.50902 0.917359 2.40316C0.829143 2.31494 0.785034 2.20908 0.785034 2.08558V1.00051C0.785034 0.841724 0.837964 0.727043 0.943824 0.656469C1.0144 0.568253 1.12026 0.524144 1.2614 0.524144H1.28787C2.64641 0.577074 3.90791 0.877011 5.07237 1.42396C6.25447 1.93561 7.33072 2.67663 8.3011 3.64702C9.21856 4.56447 9.95958 5.6319 10.5242 6.84929C11.0711 8.11961 11.371 9.38993 11.424 10.6603Z" fill="black"/>
</svg>
