<svg xmlns="http://www.w3.org/2000/svg" xmlns:xlink="http://www.w3.org/1999/xlink" viewBox="0 0 32 40">
  <defs>
    <clipPath id="clip-SP_icon">
      <rect width="32" height="40"/>
    </clipPath>
  </defs>
  <g id="SP_icon" clip-path="url(#clip-SP_icon)">
    <g id="グループ_439" data-name="グループ 439" transform="translate(-0.001)">
      <g id="グループ_430" data-name="グループ 430" transform="translate(10.852 11.943)">
        <g id="グループ_429" data-name="グループ 429" transform="translate(0 0)">
          <path id="パス_146" data-name="パス 146" d="M3.528,7.557a.626.626,0,0,1-.62-.538A4.216,4.216,0,0,0,2.255,4.8,4.216,4.216,0,0,0,.038,4.148a.626.626,0,0,1,0-1.24,4.216,4.216,0,0,0,2.217-.654A4.216,4.216,0,0,0,2.908.038a.626.626,0,0,1,1.24,0A4.216,4.216,0,0,0,4.8,2.255a4.216,4.216,0,0,0,2.217.654.626.626,0,0,1,0,1.24A4.216,4.216,0,0,0,4.8,4.8a4.216,4.216,0,0,0-.654,2.217A.626.626,0,0,1,3.528,7.557ZM2.621,3.528a2.147,2.147,0,0,1,.907.907,2.147,2.147,0,0,1,.907-.907,2.147,2.147,0,0,1-.907-.907A2.147,2.147,0,0,1,2.621,3.528Z" transform="translate(0.5 0.5)" fill="#c03"/>
        </g>
      </g>
      <path id="前面オブジェクトで型抜き_16" data-name="前面オブジェクトで型抜き 16" d="M22.75,40H3.251A3.232,3.232,0,0,1,0,36.8V3.2A3.232,3.232,0,0,1,3.251,0h17.14c-.015.074-.03.148-.042.238a17.382,17.382,0,0,1-.48,2.5,5.412,5.412,0,0,1-.562.141H3.251a.327.327,0,0,0-.329.328V28.91H23.069V17.328A4.121,4.121,0,0,0,26,17.2V36.8A3.231,3.231,0,0,1,22.75,40ZM2.923,30.512h0V36.8a.326.326,0,0,0,.329.324h19.5a.322.322,0,0,0,.319-.324V30.512Zm12.1,4.129H11.387a.8.8,0,1,1,0-1.6h3.639a.8.8,0,1,1,0,1.6Z" transform="translate(0.001)" fill="#c03"/>
      <path id="パス_146-2" data-name="パス 146" d="M6.671,13.841a.8.8,0,0,1-.792-.687c-.334-2.345-.631-3.663-1.33-4.362S2.532,7.8.187,7.462a.8.8,0,0,1,0-1.584c2.345-.334,3.663-.631,4.362-1.33s1-2.017,1.33-4.362a.8.8,0,0,1,1.584,0c.334,2.345.631,3.663,1.33,4.362s2.017,1,4.362,1.33a.8.8,0,0,1,0,1.584c-2.345.334-3.663.631-4.362,1.33s-1,2.017-1.33,4.362A.8.8,0,0,1,6.671,13.841ZM4.091,6.671a4.368,4.368,0,0,1,1.589.99,4.368,4.368,0,0,1,.99,1.589A4.139,4.139,0,0,1,9.25,6.671a4.368,4.368,0,0,1-1.589-.99,4.368,4.368,0,0,1-.99-1.589A4.368,4.368,0,0,1,5.68,5.68,4.368,4.368,0,0,1,4.091,6.671Z" transform="translate(17.327 0.5)" fill="#c03"/>
    </g>
  </g>
</svg>
