<svg width="16" height="16" viewBox="0 0 16 16" fill="none" xmlns="http://www.w3.org/2000/svg">
<path fill-rule="evenodd" clip-rule="evenodd" d="M6.36797 3.7V9.63333H12.3013V3.7H6.36797ZM6.16797 2.5C5.61568 2.5 5.16797 2.94772 5.16797 3.5V9.83333C5.16797 10.3856 5.61568 10.8333 6.16797 10.8333H12.5013C13.0536 10.8333 13.5013 10.3856 13.5013 9.83333V3.5C13.5013 2.94772 13.0536 2.5 12.5013 2.5H6.16797Z" fill="white"/>
<path fill-rule="evenodd" clip-rule="evenodd" d="M3.5 5.23496C3.83137 5.23496 4.1 5.50359 4.1 5.83496V11.5016C4.1 11.7225 4.27909 11.9016 4.5 11.9016H10.1667C10.498 11.9016 10.7667 12.1703 10.7667 12.5016C10.7667 12.833 10.498 13.1016 10.1667 13.1016H4.5C3.61634 13.1016 2.9 12.3853 2.9 11.5016V5.83496C2.9 5.50359 3.16863 5.23496 3.5 5.23496Z" fill="white"/>
<path d="M13.4976 1.5H5.16758C4.61529 1.5 4.16758 1.94772 4.16758 2.5V10.83C4.16758 11.3823 4.61529 11.83 5.16758 11.83H13.4976C14.0499 11.83 14.4976 11.3823 14.4976 10.83V2.5C14.4976 1.94772 14.0499 1.5 13.4976 1.5Z" fill="white"/>
<path d="M10.9 4.10156H2.9C2.34771 4.10156 1.9 4.54928 1.9 5.10156V13.1016C1.9 13.6538 2.34771 14.1016 2.9 14.1016H10.9C11.4523 14.1016 11.9 13.6538 11.9 13.1016V5.10156C11.9 4.54928 11.4523 4.10156 10.9 4.10156Z" fill="white"/>
<path d="M3.49961 5.83594V11.5026C3.49961 12.0549 3.94732 12.5026 4.49961 12.5026H10.1663" stroke="#BCBCBC" stroke-width="1.2" stroke-linecap="round" stroke-linejoin="round"/>
<mask id="mask0_4191_83022" style="mask-type:alpha" maskUnits="userSpaceOnUse" x="5" y="2" width="9" height="9">
<path d="M12.5009 2.49999H6.16758C5.6153 2.49999 5.16758 2.94771 5.16758 3.49999V9.83332C5.16758 10.3856 5.6153 10.8333 6.16758 10.8333H12.5009C13.0532 10.8333 13.5009 10.3856 13.5009 9.83332V3.49999C13.5009 2.94771 13.0532 2.49999 12.5009 2.49999Z" fill="white"/>
</mask>
<g mask="url(#mask0_4191_83022)">
<path d="M12.5009 2.49999H6.16758C5.6153 2.49999 5.16758 2.94771 5.16758 3.49999V9.83332C5.16758 10.3856 5.6153 10.8333 6.16758 10.8333H12.5009C13.0532 10.8333 13.5009 10.3856 13.5009 9.83332V3.49999C13.5009 2.94771 13.0532 2.49999 12.5009 2.49999Z" stroke="#BCBCBC" stroke-width="2.4" stroke-linejoin="round"/>
</g>
</svg>
