<svg width="16" height="16" viewBox="0 0 16 16" fill="none" xmlns="http://www.w3.org/2000/svg">
<path fill-rule="evenodd" clip-rule="evenodd" d="M6.36797 3.7V9.63333H12.3013V3.7H6.36797ZM6.16797 2.5C5.61568 2.5 5.16797 2.94772 5.16797 3.5V9.83333C5.16797 10.3856 5.61568 10.8333 6.16797 10.8333H12.5013C13.0536 10.8333 13.5013 10.3856 13.5013 9.83333V3.5C13.5013 2.94772 13.0536 2.5 12.5013 2.5H6.16797Z" fill="white"/>
<path fill-rule="evenodd" clip-rule="evenodd" d="M3.5 5.23496C3.83137 5.23496 4.1 5.50359 4.1 5.83496V11.5016C4.1 11.7225 4.27909 11.9016 4.5 11.9016H10.1667C10.498 11.9016 10.7667 12.1703 10.7667 12.5016C10.7667 12.833 10.498 13.1016 10.1667 13.1016H4.5C3.61634 13.1016 2.9 12.3853 2.9 11.5016V5.83496C2.9 5.50359 3.16863 5.23496 3.5 5.23496Z" fill="white"/>
</svg>
