<svg width="32" height="32" viewBox="0 0 32 32" fill="none" xmlns="http://www.w3.org/2000/svg">
<path fill-rule="evenodd" clip-rule="evenodd" d="M15.8733 11.9062C13.2604 11.9062 11.8359 13.9313 11.8359 15.9937C11.8359 18.0606 13.2604 20.0897 15.8733 20.0897C18.4963 20.0897 19.8646 18.1465 19.9101 16.103V15.8909C19.8646 13.8436 18.4963 11.9062 15.8733 11.9062Z" fill="#CC0033"/>
<path fill-rule="evenodd" clip-rule="evenodd" d="M24.5547 0.249977V21.0908C21.5982 22.4381 20.016 24.4669 15.7755 24.4669C10.1349 24.4669 7.13575 20.1071 7.13575 16C7.13575 11.8829 10.1349 7.52758 15.7755 7.52758C17.3519 7.52758 18.7175 7.91486 19.8532 8.56418V0.249977H15.8745C7.10959 0.249977 0 7.30434 0 16C0 24.6977 7.10959 31.7503 15.8745 31.7503C24.6438 31.7503 31.7531 24.6977 31.7531 16V0.249977H24.5547Z" fill="#CC0033"/>
<path fill-rule="evenodd" clip-rule="evenodd" d="M19.9162 15.8917V16.1039C19.8708 18.1473 18.5027 20.0905 15.8794 20.0905C13.2666 20.0905 11.8421 18.0614 11.8421 15.9945C11.8421 13.9321 13.2666 11.9071 15.8794 11.9071C18.5027 11.9071 19.8708 13.8445 19.9162 15.8917ZM15.7804 7.52761C10.1397 7.52761 7.14062 11.8829 7.14062 16C7.14062 20.1069 10.1397 24.4669 15.7804 24.4669C20.0209 24.4669 21.6034 22.4381 24.5595 21.0908V0.25H19.8581V8.56395C18.7223 7.91488 17.3568 7.52761 15.7804 7.52761Z" fill="white"/>
</svg>
