<svg width="32" height="32" viewBox="0 0 32 32" fill="none" xmlns="http://www.w3.org/2000/svg">
<circle cx="16" cy="16" r="16" fill="#CC0033"/>
<path d="M17.7305 6.66667V13.0765C16.8592 12.5744 15.8217 12.2748 14.614 12.2748C10.2938 12.2707 8 15.6315 8 18.8061C8 21.9806 10.2938 25.3333 14.614 25.3333C17.8561 25.3333 19.0719 23.7663 21.3333 22.7297V6.66667H17.7345M11.5988 18.802C11.5988 17.2107 12.6849 15.6518 14.6869 15.6518C16.689 15.6518 17.7427 17.1459 17.7751 18.721V18.8871C17.7386 20.4622 16.693 21.9604 14.6869 21.9604C12.6809 21.9604 11.5988 20.3974 11.5988 18.8061" fill="white"/>
</svg>
