<svg width="32" height="32" viewBox="0 0 32 32" fill="none" xmlns="http://www.w3.org/2000/svg">
<path d="M10.8552 26L11.8376 26.1867C11.8932 25.894 11.8155 25.5918 11.6255 25.3623C11.4355 25.1328 11.1531 25 10.8552 25V26ZM10 30.5L9.01758 30.3133C8.94112 30.7156 9.11771 31.1239 9.46327 31.3438C9.80882 31.5636 10.2535 31.5505 10.5855 31.3107L10 30.5ZM16.2308 26V25C16.0206 25 15.8157 25.0662 15.6453 25.1893L16.2308 26ZM2 8C2 6.34315 3.34315 5 5 5V3C2.23858 3 0 5.23858 0 8H2ZM2 22V8H0V22H2ZM5 25C3.34315 25 2 23.6569 2 22H0C0 24.7614 2.23858 27 5 27V25ZM10.8552 25H5V27H10.8552V25ZM10.9824 30.6867L11.8376 26.1867L9.87279 25.8133L9.01758 30.3133L10.9824 30.6867ZM15.6453 25.1893L9.41451 29.6893L10.5855 31.3107L16.8163 26.8107L15.6453 25.1893ZM27 25H16.2308V27H27V25ZM30 22C30 23.6569 28.6569 25 27 25V27C29.7614 27 32 24.7614 32 22H30ZM30 8V22H32V8H30ZM27 5C28.6569 5 30 6.34315 30 8H32C32 5.23858 29.7614 3 27 3V5ZM5 5H27V3H5V5Z" fill="#CC0033"/>
<path d="M18.2386 14.3026L18.2388 14.3025C18.8454 13.877 19.325 13.4734 19.6516 13.003C19.9816 12.5277 20.15 11.9924 20.15 11.3147C20.15 10.3173 19.7599 9.49474 19.0616 8.92452C18.3665 8.35694 17.3788 8.04922 16.1957 8.04922C14.8072 8.04922 13.8311 8.40097 13.125 8.99212C12.5372 9.48195 12.1312 10.1332 11.9043 10.8455C11.8689 10.9522 11.85 11.0618 11.85 11.1581C11.85 11.608 12.2225 11.8299 12.5411 11.9138L12.5409 11.9144L12.5546 11.9166L12.5598 11.9175C12.6503 11.9326 12.7546 11.95 12.8611 11.95C13.0274 11.95 13.1928 11.9081 13.3365 11.8041C13.4802 11.7001 13.5903 11.5424 13.6608 11.3311C13.8334 10.8209 14.1077 10.399 14.5026 10.1042C14.897 9.80973 15.4237 9.63298 16.1174 9.63298C16.8381 9.63298 17.3962 9.81136 17.771 10.1126C18.142 10.4109 18.3471 10.8401 18.3471 11.3773C18.3471 11.7493 18.2686 12.0173 18.0607 12.2904C17.8455 12.5731 17.4878 12.8666 16.9089 13.2734C16.4482 13.5858 16.168 13.7856 15.9634 13.9598C15.7552 14.137 15.6268 14.2865 15.4669 14.4943C15.2457 14.773 15.091 15.0523 14.9929 15.3925C14.8954 15.7305 14.8559 16.1219 14.8559 16.6219V17.0603C14.8559 17.3066 14.9528 17.5039 15.1205 17.636C15.2835 17.7645 15.4997 17.8208 15.726 17.8208C15.9458 17.8208 16.1553 17.7638 16.3127 17.6339C16.4741 17.5007 16.5649 17.3038 16.5649 17.0603V16.6376C16.5649 16.056 16.6697 15.7049 16.915 15.3891C17.1701 15.0605 17.5829 14.7608 18.2386 14.3026Z" fill="#CC0033" stroke="#CC0033" stroke-width="0.3"/>
<path d="M15.6896 19.3266C15.3494 19.3266 15.0406 19.4447 14.8161 19.6624C14.5909 19.8808 14.4594 20.1908 14.4594 20.5568C14.4594 20.9228 14.5909 21.2328 14.8161 21.4512C15.0406 21.6689 15.3494 21.787 15.6896 21.787C16.3615 21.787 16.9198 21.3029 16.9198 20.5568C16.9198 19.8107 16.3615 19.3266 15.6896 19.3266Z" fill="#CC0033" stroke="#CC0033" stroke-width="0.3"/>
</svg>
